<?xml version="1.0" encoding="UTF-8" standalone="no"?>
<!-- Created with Inkscape (http://www.inkscape.org/) -->

<svg
   width="31.999998mm"
   height="31.999998mm"
   viewBox="0 0 31.999998 31.999998"
   version="1.1"
   id="svg5"
   inkscape:version="1.3 (0e150ed6c4, 2023-07-21)"
   sodipodi:docname="Icones Redes Simples.svg"
   xml:space="preserve"
   xmlns:inkscape="http://www.inkscape.org/namespaces/inkscape"
   xmlns:sodipodi="http://sodipodi.sourceforge.net/DTD/sodipodi-0.dtd"
   xmlns="http://www.w3.org/2000/svg"
   xmlns:svg="http://www.w3.org/2000/svg"><sodipodi:namedview
     id="namedview7"
     pagecolor="#ffffff"
     bordercolor="#999999"
     borderopacity="1"
     inkscape:pageshadow="0"
     inkscape:pageopacity="0"
     inkscape:pagecheckerboard="0"
     inkscape:document-units="mm"
     showgrid="false"
     inkscape:zoom="1.5251403"
     inkscape:cx="169.82044"
     inkscape:cy="32.78387"
     inkscape:window-width="1366"
     inkscape:window-height="685"
     inkscape:window-x="0"
     inkscape:window-y="0"
     inkscape:window-maximized="1"
     inkscape:current-layer="layer1"
     inkscape:showpageshadow="2"
     inkscape:deskcolor="#d1d1d1" /><defs
     id="defs2" /><g
     inkscape:label="Camada 1"
     inkscape:groupmode="layer"
     id="layer1"
     transform="translate(-45.617947,-18.518738)"><path
       style="fill:#000000;stroke-width:0.196786"
       d="M 54.754207,47.787992 C 52.364298,47.504633 50.219451,46.019432 49.126022,43.890749 48.799613,43.255298 48.59587,42.685082 48.434537,41.95549 L 48.314946,41.414662 V 34.515845 27.617028 L 48.434537,27.0762 c 0.656201,-2.967528 2.776238,-5.087565 5.743765,-5.743767 l 0.540828,-0.119591 h 6.898817 6.898817 l 0.54083,0.119591 c 2.967526,0.656202 5.08756,2.776239 5.743762,5.743767 l 0.11959,0.540828 v 6.898817 6.898817 l -0.11959,0.540828 c -0.653703,2.956228 -2.755161,5.066517 -5.717117,5.74114 l -0.515407,0.117391 -6.716585,0.0096 c -3.694122,0.0053 -6.888239,-0.01075 -7.09804,-0.03563 z m 13.510849,-1.560766 c 2.654303,-0.295972 4.768302,-2.40997 5.064272,-5.064274 0.0765,-0.686043 0.0765,-12.608172 0,-13.294216 -0.29597,-2.654303 -2.409969,-4.768299 -5.064272,-5.064272 -0.686044,-0.07649 -12.608172,-0.07649 -13.294216,0 -2.654303,0.295973 -4.7683,2.409969 -5.064273,5.064272 -0.07649,0.686044 -0.07649,12.608173 0,13.294216 0.220275,1.97544 1.492396,3.741818 3.294428,4.574408 0.492776,0.227676 1.198352,0.429898 1.700369,0.487336 0.591882,0.06772 12.758409,0.07002 13.363692,0.0025 z m -7.792572,-4.495565 c -3.246902,-0.574097 -5.636842,-3.032787 -6.095792,-6.271151 -0.07834,-0.552779 -0.03303,-1.874435 0.08238,-2.402528 0.568195,-2.600184 2.384721,-4.641705 4.865443,-5.468075 0.831061,-0.27684 1.242407,-0.337346 2.29344,-0.337346 0.733456,0 1.068803,0.02255 1.405797,0.09454 2.959407,0.632191 5.130753,2.803536 5.762945,5.762944 0.133572,0.625281 0.133572,2.186311 0,2.811594 -0.627644,2.938116 -2.779859,5.106586 -5.710878,5.754011 -0.527839,0.116593 -2.072702,0.149828 -2.603328,0.056 z m 2.561977,-1.662009 c 2.003505,-0.522223 3.597205,-2.110235 4.137964,-4.123199 0.126241,-0.469931 0.139543,-0.606295 0.139543,-1.430608 0,-0.818553 -0.01382,-0.962528 -0.135967,-1.416513 -0.543916,-2.021572 -2.115934,-3.597596 -4.127446,-4.137965 -0.46993,-0.126241 -0.606295,-0.139542 -1.430608,-0.139542 -0.818553,0 -0.962528,0.01382 -1.416512,0.135967 -2.021573,0.543915 -3.597594,2.115933 -4.137965,4.127445 -0.126241,0.46993 -0.139542,0.606295 -0.139542,1.430608 0,0.818553 0.01382,0.962529 0.135966,1.416512 0.586931,2.181443 2.342749,3.813873 4.550841,4.231039 0.629809,0.118987 1.777954,0.07458 2.423726,-0.09374 z M 68.99656,28.942656 c -0.664343,-0.111694 -1.320025,-0.608522 -1.604021,-1.215413 -0.588321,-1.257209 0.01816,-2.640903 1.348204,-3.075972 0.20113,-0.06579 0.399741,-0.08539 0.731839,-0.0722 0.401461,0.01593 0.502557,0.04122 0.848095,0.212086 0.47983,0.237268 0.819933,0.583902 1.049864,1.070013 0.20991,0.443793 0.257034,1.088439 0.111979,1.531878 -0.271896,0.831216 -0.940439,1.416418 -1.774104,1.552943 -0.341267,0.05589 -0.360138,0.0558 -0.711856,-0.0033 z m 0.73265,-1.652588 c 0.499387,-0.327212 0.247696,-1.156937 -0.35095,-1.156937 -0.504524,0 -0.830724,0.583381 -0.544446,0.9737 0.227793,0.310577 0.588418,0.384377 0.895396,0.183237 z"
       id="path2" /></g></svg>
