<?xml version="1.0" encoding="UTF-8" standalone="no"?>
<!-- Created with Inkscape (http://www.inkscape.org/) -->

<svg
   width="32mm"
   height="32mm"
   viewBox="0 0 32 32"
   version="1.1"
   id="svg5"
   inkscape:version="1.3 (0e150ed6c4, 2023-07-21)"
   sodipodi:docname="Icones Redes Simples.svg"
   xml:space="preserve"
   xmlns:inkscape="http://www.inkscape.org/namespaces/inkscape"
   xmlns:sodipodi="http://sodipodi.sourceforge.net/DTD/sodipodi-0.dtd"
   xmlns="http://www.w3.org/2000/svg"
   xmlns:svg="http://www.w3.org/2000/svg"><sodipodi:namedview
     id="namedview7"
     pagecolor="#ffffff"
     bordercolor="#999999"
     borderopacity="1"
     inkscape:pageshadow="0"
     inkscape:pageopacity="0"
     inkscape:pagecheckerboard="0"
     inkscape:document-units="mm"
     showgrid="false"
     inkscape:zoom="1.5251403"
     inkscape:cx="169.82044"
     inkscape:cy="32.78387"
     inkscape:window-width="1366"
     inkscape:window-height="685"
     inkscape:window-x="0"
     inkscape:window-y="0"
     inkscape:window-maximized="1"
     inkscape:current-layer="layer1"
     inkscape:showpageshadow="2"
     inkscape:deskcolor="#d1d1d1"><inkscape:page
       x="0"
       y="0"
       width="32"
       height="32"
       id="page1"
       margin="0"
       bleed="0" /></sodipodi:namedview><defs
     id="defs2" /><g
     inkscape:label="Camada 1"
     inkscape:groupmode="layer"
     id="layer1"
     transform="translate(-3.6179492,-18.518738)"><path
       style="fill:#000000;stroke-width:0.237065"
       d="M 7.5173709,48.068281 C 7.0657361,47.930899 6.5897341,47.507577 6.4140205,47.087037 c -0.1318728,-0.315623 -0.1318728,-24.136705 0,-24.452328 0.1220798,-0.29219 0.5126272,-0.708862 0.8172218,-0.871903 l 0.2551722,-0.136585 11.9462505,-0.01631 c 13.471753,-0.01841 12.363214,-0.05909 12.910354,0.473839 0.240476,0.234232 0.336527,0.390096 0.442458,0.717989 l 0.135305,0.41881 v 11.640335 11.640333 l -0.135305,0.418809 c -0.105817,0.327546 -0.202027,0.483802 -0.441488,0.717045 -0.546317,0.532128 0.554241,0.490509 -12.810372,0.484433 -6.522467,-0.003 -11.9297782,-0.02691 -12.0162461,-0.05322 z M 31.381022,46.971812 c 0.116852,-0.04883 0.242965,-0.145759 0.280239,-0.215409 0.04786,-0.08941 0.06778,-3.588831 0.06778,-11.908814 0,-13.088041 0.03844,-11.992144 -0.425231,-12.120919 -0.32606,-0.09056 -23.1618669,-0.09008 -23.4879893,4.74e-4 -0.458641,0.127374 -0.4234839,-0.880035 -0.4234839,12.134729 0,8.675989 0.018599,11.74062 0.071886,11.842168 0.076816,0.146426 0.1966369,0.237588 0.3985446,0.30324 0.069001,0.02242 5.3410276,0.0436 11.7156226,0.04705 9.86253,0.0052 11.621848,-0.007 11.802644,-0.08252 z M 9.8093561,44.65361 C 9.7195917,44.563835 9.644785,44.395656 9.6210544,44.230226 9.599397,44.079279 9.5900845,41.236614 9.6003427,37.913197 l 0.018666,-6.042579 0.1759878,-0.151364 0.1759879,-0.151363 h 2.4317836 2.431784 l 0.152061,0.161845 0.152061,0.161845 0.01829,6.094819 c 0.01,3.352152 0.0011,6.189708 -0.01984,6.305682 -0.02097,0.115975 -0.105533,0.278271 -0.187925,0.36066 l -0.149802,0.149801 H 12.378844 9.9582885 Z m 4.2316609,-6.468393 v -5.551029 h -1.662171 -1.662171 v 5.551029 5.551027 h 1.662171 1.662171 z m 2.40267,6.465949 -0.175986,-0.151379 V 38.1957 31.891613 l 0.152061,-0.161861 0.152062,-0.161861 h 1.896554 1.896557 l 0.162386,0.192984 c 0.08931,0.106141 0.162384,0.26138 0.162384,0.344976 0,0.0836 0.0081,0.151997 0.01805,0.151997 0.01,0 0.256903,-0.08296 0.548831,-0.184368 0.915463,-0.317987 1.683994,-0.45026 2.820187,-0.485388 1.136122,-0.03512 1.614264,0.02962 2.318066,0.313902 0.640114,0.258552 1.07122,0.550314 1.637968,1.108535 0.62608,0.616658 0.964308,1.155923 1.264777,2.016523 l 0.204769,0.586502 0.01844,4.408377 0.01844,4.408377 -0.186117,0.186118 -0.186117,0.186117 h -2.354013 c -2.402541,0 -2.604642,-0.01814 -2.717115,-0.243709 -0.02777,-0.0557 -0.0646,-1.738354 -0.08186,-3.739231 l -0.03136,-3.637963 -0.195194,-0.344977 c -0.643481,-1.137268 -2.183414,-1.155579 -2.876911,-0.03422 l -0.189515,0.306439 -0.03136,3.695496 -0.03136,3.695495 -0.175988,0.151329 -0.175988,0.15133 H 18.463 16.619653 Z m 3.116996,-4.042534 c 0,-1.865062 0.02584,-3.263891 0.06403,-3.4652 0.164313,-0.866416 0.743124,-1.620643 1.537154,-2.003003 0.383282,-0.184571 0.513265,-0.213838 1.05163,-0.236802 0.523808,-0.02236 0.671625,-0.0052 1.003483,0.115705 0.655684,0.239076 1.120111,0.602782 1.468747,1.150221 0.370076,0.581109 0.359986,0.474931 0.394327,4.148263 l 0.03166,3.387069 h 1.662173 1.662172 l -0.0012,-3.826132 c -9.49e-4,-3.407203 -0.01297,-3.872489 -0.10887,-4.249517 -0.254952,-1.002306 -0.891445,-1.874169 -1.756795,-2.406432 -0.800747,-0.492528 -1.623403,-0.646734 -2.851641,-0.534536 -1.278019,0.116745 -2.253923,0.394929 -3.042351,0.867234 -0.384755,0.230484 -0.484775,0.255318 -0.752748,0.186912 -0.230546,-0.05886 -0.361802,-0.334615 -0.361802,-0.760127 v -0.348096 h -1.097701 -1.097659 v 5.551028 5.551027 h 1.097659 1.097662 z M 11.664088,29.775095 c -1.333299,-0.358544 -2.1913047,-1.668822 -2.0015187,-3.056561 0.2020231,-1.477229 1.6737577,-2.562771 3.1348217,-2.312227 1.5145,0.259709 2.48679,1.57385 2.301733,3.111013 -0.06451,0.535835 -0.30151,1.02344 -0.713999,1.468976 -0.697468,0.75335 -1.734714,1.054036 -2.721037,0.788799 z m 1.404716,-1.154827 c 0.30748,-0.134857 0.624069,-0.4427 0.803302,-0.781105 0.103143,-0.194739 0.134642,-0.36427 0.134642,-0.724638 0,-0.566556 -0.134142,-0.865101 -0.55527,-1.235791 -0.870502,-0.766246 -2.271795,-0.37673 -2.640733,0.734042 -0.127537,0.383968 -0.1014,0.87127 0.06439,1.200329 0.134102,0.266192 0.508583,0.6632 0.740141,0.784679 0.415853,0.218162 0.987233,0.227 1.453529,0.02248 z"
       id="path1" /></g></svg>
