<?xml version="1.0" encoding="UTF-8" standalone="no"?>
<svg
   enable-background="new 0 0 16.556 16.557"
   height="16.557"
   viewBox="0 0 16.556 16.557"
   width="16.556"
   version="1.1"
   id="svg4"
   sodipodi:docname="bulletpoint.svg"
   inkscape:version="1.2.2 (b0a8486541, 2022-12-01)"
   xmlns:inkscape="http://www.inkscape.org/namespaces/inkscape"
   xmlns:sodipodi="http://sodipodi.sourceforge.net/DTD/sodipodi-0.dtd"
   xmlns="http://www.w3.org/2000/svg"
   xmlns:svg="http://www.w3.org/2000/svg"
   xmlns:rdf="http://www.w3.org/1999/02/22-rdf-syntax-ns#"
   xmlns:cc="http://creativecommons.org/ns#"
   xmlns:dc="http://purl.org/dc/elements/1.1/">
  <metadata
     id="metadata10">
    <rdf:RDF>
      <cc:Work
         rdf:about="">
        <dc:format>image/svg+xml</dc:format>
        <dc:type
           rdf:resource="http://purl.org/dc/dcmitype/StillImage" />
      </cc:Work>
    </rdf:RDF>
  </metadata>
  <defs
     id="defs8" />
  <sodipodi:namedview
     pagecolor="#ffffff"
     bordercolor="#666666"
     borderopacity="1"
     objecttolerance="10"
     gridtolerance="10"
     guidetolerance="10"
     inkscape:pageopacity="0"
     inkscape:pageshadow="2"
     inkscape:window-width="1366"
     inkscape:window-height="685"
     id="namedview6"
     showgrid="false"
     inkscape:zoom="14.253791"
     inkscape:cx="3.7884658"
     inkscape:cy="8.3135778"
     inkscape:window-x="0"
     inkscape:window-y="0"
     inkscape:window-maximized="1"
     inkscape:current-layer="svg4"
     inkscape:showpageshadow="2"
     inkscape:pagecheckerboard="0"
     inkscape:deskcolor="#d1d1d1" />
  <path
     style="fill:#000000;stroke:none;stroke-width:0.30371249;stroke-linejoin:miter;stroke-miterlimit:20;stroke-dasharray:none"
     d="M 4.2533489,12.483108 C 2.2534527,10.382222 0.61728583,8.6377166 0.6174146,8.6065095 0.61754093,8.5753023 1.2765545,8.3823628 2.08189,8.1773862 L 3.5461327,7.805055 5.7359741,8.8202538 7.9258129,9.8354525 7.9478563,13.069876 c 0.012137,1.778908 0.00371,3.234078 -0.01808,3.233731 -0.022043,-2.97e-4 -1.6764512,-1.719588 -3.676345,-3.820499 z m 4.4000144,0.605641 6.068e-4,-3.2532965 2.1832389,-1.0113845 2.183238,-1.0113846 1.45247,0.3596254 c 0.798871,0.1978931 1.482798,0.386746 1.519878,0.4198603 0.05249,0.04681 -3.184528,3.4685269 -7.0289228,7.4295839 l -0.310811,0.320269 6.092e-4,-3.253273 z M 6.1978772,8.3324313 C 5.0510437,7.8019591 4.1077031,7.3626068 4.1015756,7.3561424 4.065514,7.3180004 8.2321904,0.21450683 8.29032,0.21497743 8.3487467,0.21542324 12.517403,7.3186691 12.481277,7.3562415 12.466912,7.3711021 9.2326128,8.8711264 8.6889518,9.1149386 L 8.2830284,9.2969804 Z M 0.37286689,7.806442 7.5021286,0.59436742 C 7.4597513,0.6894749 3.5019325,7.0924172 3.4707376,7.1269184 3.4479513,7.1524291 0.40697678,7.9470723 0.33348884,7.9470723 c -0.0237771,0 -0.006194,-0.063157 0.0393808,-0.1404321 z M 14.612487,7.5563884 13.139037,7.1808869 C 11.889248,4.9624291 10.144697,2.5173479 9.0438714,0.51387267 L 16.233105,7.9394192 C 16.152185,7.9344692 15.422908,7.763074 14.612487,7.5563884 Z"
     id="path2648"
     inkscape:connector-curvature="0"
     sodipodi:nodetypes="csccccccccccccscscccscccccscccscscccs" />
</svg>
